<mxfile host="65bd71144e">
    <diagram id="npN7jeriWNPPiQJZ0RDg" name="via_Classe">
        <mxGraphModel dx="830" dy="483" grid="1" gridSize="10" guides="1" tooltips="1" connect="1" arrows="1" fold="1" page="1" pageScale="1" pageWidth="800" pageHeight="450" math="0" shadow="0">
            <root>
                <mxCell id="0"/>
                <mxCell id="1" parent="0"/>
                <mxCell id="2" value="classe &lt;br&gt;definicao campos do objeto" style="text;html=1;align=left;verticalAlign=top;rounded=0;strokeColor=default;strokeWidth=2;whiteSpace=wrap;spacingLeft=8;" parent="1" vertex="1">
                    <mxGeometry x="40" y="40" width="560" height="400" as="geometry"/>
                </mxCell>
                <mxCell id="4" value="memoria" style="text;html=1;align=left;verticalAlign=top;rounded=0;strokeColor=default;strokeWidth=2;whiteSpace=wrap;spacingLeft=8;" parent="1" vertex="1">
                    <mxGeometry x="160" y="80" width="400" height="80" as="geometry"/>
                </mxCell>
                <mxCell id="5" value="entrada_params_construcao&amp;nbsp;&lt;br&gt;" style="text;html=1;align=left;verticalAlign=top;rounded=0;strokeColor=default;strokeWidth=2;whiteSpace=wrap;spacingLeft=8;" parent="1" vertex="1">
                    <mxGeometry x="160" y="190" width="430" height="100" as="geometry"/>
                </mxCell>
                <mxCell id="6" value="comportamentos: acoes que o objeto PODE_FAZER (Tanto para configurar seus proprios campos com analizadores(), quanto para ele pŕoprio ter acoes fora de si, )" style="text;html=1;align=left;verticalAlign=top;rounded=0;strokeColor=default;strokeWidth=2;whiteSpace=wrap;spacingLeft=8;" parent="1" vertex="1">
                    <mxGeometry x="120" y="300" width="460" height="130" as="geometry"/>
                </mxCell>
                <mxCell id="8" style="edgeStyle=none;html=1;" parent="1" source="7" target="5" edge="1">
                    <mxGeometry relative="1" as="geometry">
                        <Array as="points">
                            <mxPoint x="150" y="200"/>
                        </Array>
                    </mxGeometry>
                </mxCell>
                <mxCell id="7" value="1" style="ellipse;whiteSpace=wrap;html=1;strokeColor=default;strokeWidth=2;" parent="1" vertex="1">
                    <mxGeometry x="80" y="160" width="50" height="40" as="geometry"/>
                </mxCell>
                <mxCell id="10" style="edgeStyle=none;html=1;" parent="1" source="9" target="6" edge="1">
                    <mxGeometry relative="1" as="geometry"/>
                </mxCell>
                <mxCell id="9" value="2" style="ellipse;whiteSpace=wrap;html=1;strokeColor=default;strokeWidth=2;" parent="1" vertex="1">
                    <mxGeometry x="50" y="320" width="50" height="40" as="geometry"/>
                </mxCell>
                <mxCell id="12" style="edgeStyle=none;html=1;" parent="1" source="11" target="4" edge="1">
                    <mxGeometry relative="1" as="geometry"/>
                </mxCell>
                <mxCell id="11" value="4" style="ellipse;whiteSpace=wrap;html=1;strokeColor=default;strokeWidth=2;" parent="1" vertex="1">
                    <mxGeometry x="50" y="90" width="50" height="40" as="geometry"/>
                </mxCell>
                <mxCell id="13" value="dado_PODE_TER" style="text;html=1;align=center;verticalAlign=middle;whiteSpace=wrap;rounded=0;strokeColor=default;strokeWidth=2;fontSize=12;" parent="1" vertex="1">
                    <mxGeometry x="340" y="90" width="120" height="30" as="geometry"/>
                </mxCell>
                <mxCell id="3" value="dado_TEM" style="text;html=1;align=center;verticalAlign=middle;whiteSpace=wrap;rounded=0;strokeColor=default;strokeWidth=2;" parent="1" vertex="1">
                    <mxGeometry x="240" y="90" width="80" height="30" as="geometry"/>
                </mxCell>
                <mxCell id="15" value="dado_ELE_É" style="text;html=1;align=center;verticalAlign=middle;whiteSpace=wrap;rounded=0;strokeColor=default;strokeWidth=2;fontSize=12;" parent="1" vertex="1">
                    <mxGeometry x="180" y="124" width="120" height="30" as="geometry"/>
                </mxCell>
                <mxCell id="16" value="&lt;span style=&quot;text-align: left;&quot;&gt;analizador_metodosAcessores:&lt;/span&gt;&lt;br style=&quot;text-align: left;&quot;&gt;&lt;span style=&quot;text-align: left;&quot;&gt;fazem o meio campo para receber do recebedor_Metodo_Construtor e gravar na memoria&amp;nbsp;&lt;/span&gt;" style="text;html=1;align=center;verticalAlign=middle;whiteSpace=wrap;rounded=0;strokeColor=default;strokeWidth=2;" parent="1" vertex="1">
                    <mxGeometry x="200" y="347" width="210" height="60" as="geometry"/>
                </mxCell>
                <mxCell id="17" value="&lt;div style=&quot;&quot;&gt;&lt;span style=&quot;background-color: initial;&quot;&gt;ACAO_1&lt;/span&gt;&lt;/div&gt;" style="text;html=1;align=center;verticalAlign=top;whiteSpace=wrap;rounded=0;strokeColor=default;strokeWidth=2;" parent="1" vertex="1">
                    <mxGeometry x="440" y="347" width="50" height="60" as="geometry"/>
                </mxCell>
                <mxCell id="18" value="&lt;div style=&quot;&quot;&gt;&lt;span style=&quot;background-color: initial;&quot;&gt;ACAO_2&lt;/span&gt;&lt;/div&gt;" style="text;html=1;align=center;verticalAlign=top;whiteSpace=wrap;rounded=0;strokeColor=default;strokeWidth=2;" parent="1" vertex="1">
                    <mxGeometry x="520" y="348" width="50" height="60" as="geometry"/>
                </mxCell>
                <mxCell id="19" value="cicloDoDado:&lt;br&gt;1- entrada_params_construcao&amp;nbsp;&lt;br&gt;&lt;br&gt;2 - analizador_MetodosAcessores&lt;br&gt;&lt;br&gt;3-&amp;nbsp;intermediario_blocoConstrucao&amp;nbsp; : recebe a entradaParams e envia para gravação na memoria&lt;br&gt;&lt;br&gt;4-&amp;nbsp; declara o dado e grava o seu valor que receber em memoria" style="text;html=1;align=left;verticalAlign=top;whiteSpace=wrap;rounded=0;strokeColor=default;strokeWidth=2;" parent="1" vertex="1">
                    <mxGeometry x="640" y="41.5" width="190" height="198.5" as="geometry"/>
                </mxCell>
                <mxCell id="20" value="Ciclo Dado_Composto_OBJETO Via_Classe" style="text;html=1;strokeColor=none;fillColor=none;align=center;verticalAlign=middle;whiteSpace=wrap;rounded=0;fontStyle=1;fontSize=22;" parent="1" vertex="1">
                    <mxGeometry x="80" y="2" width="530" height="30" as="geometry"/>
                </mxCell>
                <mxCell id="21" value="intermediario_blocoConstrucao&amp;nbsp; : recebe a entradaParams &amp;gt; envia para o analizador - e o resultado grava na memoria" style="text;html=1;align=left;verticalAlign=middle;whiteSpace=wrap;rounded=0;strokeColor=default;strokeWidth=2;spacingLeft=5;" parent="1" vertex="1">
                    <mxGeometry x="265" y="220" width="315" height="60" as="geometry"/>
                </mxCell>
                <mxCell id="23" style="edgeStyle=none;html=1;fontSize=28;" parent="1" source="22" edge="1">
                    <mxGeometry relative="1" as="geometry">
                        <mxPoint x="70" y="130" as="targetPoint"/>
                        <Array as="points">
                            <mxPoint x="70" y="240"/>
                        </Array>
                    </mxGeometry>
                </mxCell>
                <mxCell id="24" style="edgeStyle=none;html=1;entryX=0;entryY=0.5;entryDx=0;entryDy=0;fontSize=28;" parent="1" source="22" target="21" edge="1">
                    <mxGeometry relative="1" as="geometry"/>
                </mxCell>
                <mxCell id="22" value="3" style="ellipse;whiteSpace=wrap;html=1;strokeColor=default;strokeWidth=2;" parent="1" vertex="1">
                    <mxGeometry x="180" y="225" width="50" height="40" as="geometry"/>
                </mxCell>
                <mxCell id="25" value="dado_RESULTADO_COMPUTADO" style="text;html=1;align=center;verticalAlign=middle;whiteSpace=wrap;rounded=0;strokeColor=default;strokeWidth=2;fontSize=12;" parent="1" vertex="1">
                    <mxGeometry x="320" y="125.75" width="210" height="30" as="geometry"/>
                </mxCell>
                <mxCell id="27" value="&lt;span style=&quot;color: rgb(255, 255, 255);&quot; class=&quot;OYPEnA text-decoration-none text-strikethrough-none&quot;&gt;objetivo: entidade com campos validos e membros de acoes capaz de realizar tarefa&lt;/span&gt;" style="text;html=1;align=left;verticalAlign=top;whiteSpace=wrap;rounded=0;strokeColor=default;strokeWidth=2;" vertex="1" parent="1">
                    <mxGeometry x="640" y="280" width="180" height="70" as="geometry"/>
                </mxCell>
            </root>
        </mxGraphModel>
    </diagram>
</mxfile>